<?xml version="1.0" encoding="UTF-8" standalone="no"?>
<svg width="34px" height="26px" viewBox="0 0 34 26" version="1.1" xmlns="http://www.w3.org/2000/svg" xmlns:xlink="http://www.w3.org/1999/xlink" xmlns:sketch="http://www.bohemiancoding.com/sketch/ns">
    <!-- Generator: Sketch 3.5.1 (25234) - http://www.bohemiancoding.com/sketch -->
    <title>logo</title>
    <desc>Created with Sketch.</desc>
    <defs></defs>
    <g id="Page-1" stroke="none" stroke-width="1" fill="none" fill-rule="evenodd" sketch:type="MSPage">
        <g id="logo" sketch:type="MSLayerGroup">
            <rect id="Rectangle-1" fill="#000000" sketch:type="MSShapeGroup" x="0" y="0" width="34" height="2"></rect>
            <rect id="Rectangle-2" fill="#000000" sketch:type="MSShapeGroup" x="32" y="2" width="2" height="22"></rect>
            <rect id="Rectangle-3" fill="#000000" sketch:type="MSShapeGroup" x="0" y="2" width="2" height="22"></rect>
            <path d="M9.8579387,9.02234637 C9.8579387,10.6983241 9.32311976,11.9273743 7.45125348,13.9162012 C5.62395543,15.8379888 5,17.1564246 5,18.8994413 L5,20.8212291 L12.0863509,20.8212291 L12.0863509,18.5865922 L7.45125348,18.5865922 C7.42896935,18.4748603 7.42896935,18.3631285 7.42896935,18.2513966 C7.42896935,17.4245811 7.83008356,16.6871508 9.27855152,15.122905 C11.551532,12.6871509 12.3091922,11.0111732 12.3091922,8.93296089 C12.3091922,6.4301676 11.0612813,5 8.6545961,5 C6.24791086,5 5,6.4301676 5,8.93296089 L5,10.452514 L7.31754875,10.452514 L7.31754875,8.77653631 C7.31754875,7.65921787 7.80779944,7.23463687 8.58774373,7.23463687 C9.36768801,7.23463687 9.8579387,7.61452514 9.8579387,9.02234637 L9.8579387,9.02234637 L9.8579387,9.02234637 L9.8579387,9.02234637 Z" id="2to" fill="#000000" sketch:type="MSShapeGroup"></path>
            <path d="M13.1114205,7.41340782 L15.6740947,7.41340782 L15.6740947,20.8212291 L18.1253482,20.8212291 L18.1253482,7.41340782 L20.6880223,7.41340782 L20.6880223,5.17877095 L13.1114205,5.17877095 L13.1114205,7.41340782 L13.1114205,7.41340782 L13.1114205,7.41340782 Z" id="Path" fill="#000000" sketch:type="MSShapeGroup"></path>
            <path d="M21.557103,17.0670391 C21.557103,19.5698324 22.8718663,21 25.2785515,21 C27.6852368,21 29,19.5698324 29,17.0670391 L29,8.93296089 C29,6.4301676 27.6852368,5 25.2785515,5 C22.8718663,5 21.557103,6.4301676 21.557103,8.93296089 L21.557103,17.0670391 L21.557103,17.0670391 L21.557103,17.0670391 Z" id="Path" fill="#000000" sketch:type="MSShapeGroup"></path>
            <path d="M24.0083565,8.77653631 C24.0083565,7.65921787 24.4986072,7.23463687 25.2785515,7.23463687 C26.0584957,7.23463687 26.5487464,7.65921787 26.5487464,8.77653631 L26.5487464,17.2234637 C26.5487464,18.3407821 26.0584957,18.7653631 25.2785515,18.7653631 C24.4986072,18.7653631 24.0083565,18.3407821 24.0083565,17.2234637 L24.0083565,8.77653631 L24.0083565,8.77653631 L24.0083565,8.77653631 Z" id="Path" fill="#FBFBFB" sketch:type="MSShapeGroup"></path>
            <rect id="Rectangle-4" fill="#000000" sketch:type="MSShapeGroup" x="0" y="24" width="34" height="2"></rect>
        </g>
    </g>
</svg>