<?xml version="1.0" encoding="UTF-8" standalone="no"?>
<svg width="34px" height="26px" viewBox="0 0 34 26" version="1.1" xmlns="http://www.w3.org/2000/svg" xmlns:xlink="http://www.w3.org/1999/xlink" xmlns:sketch="http://www.bohemiancoding.com/sketch/ns">
    <!-- Generator: Sketch 3.4.4 (17249) - http://www.bohemiancoding.com/sketch -->
    <title>twoto_logo</title>
    <desc>Created with Sketch.</desc>
    <defs></defs>
    <g id="Page-1" stroke="none" stroke-width="1" fill="none" fill-rule="evenodd" sketch:type="MSPage">
        <g id="Desktop-HD" sketch:type="MSArtboardGroup" transform="translate(-26.000000, -26.000000)">
            <g id="Group" sketch:type="MSLayerGroup" transform="translate(-2.000000, 0.000000)">
                <g id="menu" transform="translate(28.000000, 13.000000)" sketch:type="MSShapeGroup">
                    <g id="Work-+-About-+-twoto_logo">
                        <g id="twoto_logo" transform="translate(0.000000, 13.000000)">
                            <g>
                                <path d="M9.5796579,8.90905877 C9.5796579,10.63277 9.04829648,11.8968248 7.18853151,13.9422955 C5.37304666,15.9188176 4.753125,17.2748038 4.753125,19.0674634 L4.753125,21.0439856 L11.7936638,21.0439856 L11.7936638,18.745704 L7.18853151,18.745704 C7.16639145,18.6307899 7.16639145,18.5158758 7.16639145,18.4009617 C7.16639145,17.5505976 7.56491252,16.7921646 9.00401636,15.1833675 C11.2623024,12.6782406 12.0150644,10.9545294 12.0150644,8.8171275 C12.0150644,6.24305212 10.7752211,4.7721519 8.38409471,4.7721519 C5.99296831,4.7721519 4.753125,6.24305212 4.753125,8.8171275 L4.753125,10.379959 L7.05569116,10.379959 L7.05569116,8.65624779 C7.05569116,7.50710699 7.54277246,7.07043349 8.31767453,7.07043349 C9.0925766,7.07043349 9.5796579,7.46114136 9.5796579,8.90905877 L9.5796579,8.90905877 Z M12.8121065,7.25429602 L15.3582134,7.25429602 L15.3582134,21.0439856 L17.7936199,21.0439856 L17.7936199,7.25429602 L20.3397267,7.25429602 L20.3397267,4.95601443 L12.8121065,4.95601443 L12.8121065,7.25429602 Z M23.6385955,8.65624779 C23.6385955,7.50710699 24.1256768,7.07043349 24.9005789,7.07043349 C25.6754809,7.07043349 26.1625622,7.50710699 26.1625622,8.65624779 L26.1625622,17.3437522 C26.1625622,18.492893 25.6754809,18.9295665 24.9005789,18.9295665 C24.1256768,18.9295665 23.6385955,18.492893 23.6385955,17.3437522 L23.6385955,8.65624779 Z M21.203189,17.1828725 C21.203189,19.7569479 22.5094525,21.2278481 24.9005789,21.2278481 C27.2917053,21.2278481 28.5979688,19.7569479 28.5979688,17.1828725 L28.5979688,8.8171275 C28.5979688,6.24305212 27.2917053,4.7721519 24.9005789,4.7721519 C22.5094525,4.7721519 21.203189,6.24305212 21.203189,8.8171275 L21.203189,17.1828725 Z" id="2to" fill="#333333"></path>
                                <rect id="Rectangle-24-Copy" stroke="#333333" stroke-width="1.5" x="0" y="0" width="33.271875" height="26"></rect>
                            </g>
                        </g>
                    </g>
                </g>
            </g>
        </g>
    </g>
</svg>